<svg width="20" height="20" viewBox="0 0 20 20" fill="none" xmlns="http://www.w3.org/2000/svg">
<g id="tabler:copy">
<g id="Group">
<path id="Vector" d="M5.83325 8.05575C5.83325 7.46631 6.06741 6.90101 6.48421 6.48421C6.90101 6.06741 7.46631 5.83325 8.05575 5.83325H15.2774C15.5693 5.83325 15.8583 5.89074 16.1279 6.00243C16.3976 6.11412 16.6426 6.27783 16.849 6.48421C17.0553 6.69059 17.2191 6.93559 17.3307 7.20524C17.4424 7.47488 17.4999 7.76389 17.4999 8.05575V15.2774C17.4999 15.5693 17.4424 15.8583 17.3307 16.1279C17.2191 16.3976 17.0553 16.6426 16.849 16.849C16.6426 17.0553 16.3976 17.2191 16.1279 17.3307C15.8583 17.4424 15.5693 17.4999 15.2774 17.4999H8.05575C7.76389 17.4999 7.47488 17.4424 7.20524 17.3307C6.93559 17.2191 6.69059 17.0553 6.48421 16.849C6.27783 16.6426 6.11412 16.3976 6.00243 16.1279C5.89074 15.8583 5.83325 15.5693 5.83325 15.2774V8.05575Z" stroke="#9296AB" stroke-width="1.6" stroke-linecap="round" stroke-linejoin="round"/>
<path id="Vector_2" d="M3.34333 13.9475C3.0875 13.8021 2.87471 13.5916 2.72658 13.3374C2.57846 13.0832 2.50028 12.7942 2.5 12.5V4.16667C2.5 3.25 3.25 2.5 4.16667 2.5H12.5C13.125 2.5 13.465 2.82083 13.75 3.33333" stroke="#9296AB" stroke-width="1.6" stroke-linecap="round" stroke-linejoin="round"/>
</g>
</g>
</svg>
