<svg width="792" height="117" viewBox="0 0 792 117" fill="none" xmlns="http://www.w3.org/2000/svg">
<g opacity="0.1">
<path d="M51.4011 32.8922L80.1653 2.38596H98.2067C110.234 2.38596 116.248 2.55639 116.248 2.89724C116.248 3.12447 115.34 4.14703 113.525 5.96491C113.185 6.30576 104.731 14.8839 88.1648 31.6992L65.5279 54.7068L93.4411 94.2456C112.05 120.491 121.354 133.671 121.354 133.784C121.354 134.012 115.227 134.125 102.972 134.125H84.5905C67.3434 107.993 54.3513 88.4511 45.6142 75.4987C38.3522 82.7703 32.9058 88.2807 29.2748 92.0301V134.125H0V87.2581L11.4036 75.1579C12.5382 74.0217 17.928 68.3409 27.5728 58.1153C37.331 47.7761 45.2738 39.3684 51.4011 32.8922ZM0 28.2907V2.38596H29.2748V22.8371L14.9778 38.1754C5.44647 48.6282 0.624075 53.8546 0.510607 53.8546C0.397139 53.9683 0.283671 53.0593 0.170203 51.1278C0.170203 49.0827 0.113468 46.015 0 41.9248C0 37.8346 0 33.2899 0 28.2907Z" fill="white"/>
<path d="M166.349 65.614L190.688 1.02255H221.494L246.174 67.1479C250.145 77.8279 254.23 88.792 258.428 100.04C262.627 111.175 265.804 119.582 267.96 125.263C270.229 131.058 271.364 134.012 271.364 134.125C271.477 134.353 271.42 134.523 271.193 134.637C271.08 134.75 270.456 134.864 269.321 134.977C268.3 135.091 266.768 135.148 264.726 135.148C262.797 135.148 259.96 135.148 256.216 135.148H240.557L223.877 86.0652C213.325 55.2748 207.481 38.4027 206.346 35.4486C206.346 35.335 206.29 35.1646 206.176 34.9373C206.176 34.5965 206.119 34.4261 206.006 34.4261C205.779 34.4261 198.801 53.7978 185.071 92.5413L170.093 134.807C166.803 134.921 161.81 134.977 155.115 134.977C148.421 134.977 143.428 135.034 140.138 135.148L140.989 132.762C141.102 132.421 142.237 129.297 144.393 123.388C146.662 117.594 149.896 109.073 154.094 97.8246C158.406 86.5764 162.491 75.8396 166.349 65.614Z" fill="white"/>
<path d="M372.614 136V1.53384H402.91V136H372.614ZM289.045 136V1.53384H319.341V52.8321H344.19C346.914 52.8321 349.523 52.8321 352.02 52.8321C354.629 52.8321 356.955 52.8889 358.998 53.0025C361.04 53.0025 362.799 53.0025 364.274 53.0025C365.863 53.0025 367.054 53.0593 367.848 53.1729H369.04L356.445 65.7845L344.19 78.0551H319.341V136H289.045Z" fill="white"/>
<path d="M435.513 120.832L448.959 109.414H513.125V134.125H466.83C436.307 134.125 421.046 133.898 421.046 133.444C421.046 133.33 421.103 133.216 421.216 133.103C421.33 132.989 422.01 132.364 423.259 131.228C424.507 130.206 426.379 128.615 428.875 126.456C431.371 124.411 433.584 122.536 435.513 120.832ZM420.025 50.6165V2.38596H449.299V73.9649L435.343 85.8947C425.698 94.1888 420.819 98.3926 420.706 98.5063C420.592 98.6199 420.479 97.995 420.365 96.6316C420.252 95.2682 420.138 92.7686 420.025 89.1328C420.025 85.3835 420.025 80.4979 420.025 74.4762C420.025 68.3409 420.025 60.3876 420.025 50.6165Z" fill="white"/>
<path d="M613.773 41.4135V0H642.878V41.9248C642.878 67.6023 642.708 83.1679 642.367 88.6215C641.006 101.233 637.261 111.004 631.134 117.935C625.12 124.865 616.156 129.694 604.242 132.421C600.498 133.33 594.427 133.784 586.03 133.784C577.634 133.784 573.208 133.614 572.755 133.273C572.641 133.273 572.584 133.216 572.584 133.103C572.584 132.648 577.634 128.16 587.732 119.639C598.058 110.891 603.958 106.005 605.433 104.982C609.632 101.915 612.242 96.0067 613.263 87.2581C613.603 84.7586 613.773 69.477 613.773 41.4135ZM542.288 0.340848C549.55 0.340848 554.43 0.227232 556.926 0H560.33L560.5 45.6742C560.614 76.3509 560.897 92.3709 561.351 93.7343C562.713 97.3701 564.415 100.324 566.457 102.596C567.819 104.187 568.273 105.153 567.819 105.494C566.344 106.857 562.486 110.152 556.245 115.378C550.118 120.491 546.941 123.048 546.714 123.048C546.487 123.048 545.239 121.798 542.969 119.298C538.317 114.185 534.97 107.766 532.927 100.04L531.395 94.416C531.282 83.9632 531.225 68.3409 531.225 47.5489C531.225 26.6433 531.169 10.9641 531.055 0.511272L542.288 0.340848Z" fill="white"/>
<path d="M686.928 65.614L711.267 1.02255H742.074L766.753 67.1479C770.725 77.8279 774.81 88.792 779.008 100.04C783.206 111.175 786.383 119.582 788.539 125.263C790.809 131.058 791.943 134.012 791.943 134.125C792.057 134.353 792 134.523 791.773 134.637C791.66 134.75 791.036 134.864 789.901 134.977C788.88 135.091 787.348 135.148 785.305 135.148C783.376 135.148 780.54 135.148 776.795 135.148H761.137L744.457 86.0652C733.904 55.2748 728.061 38.4027 726.926 35.4486C726.926 35.335 726.869 35.1646 726.756 34.9373C726.756 34.5965 726.699 34.4261 726.586 34.4261C726.359 34.4261 719.38 53.7978 705.651 92.5413L690.673 134.807C687.382 134.921 682.39 134.977 675.695 134.977C669 134.977 664.008 135.034 660.717 135.148L661.568 132.762C661.682 132.421 662.816 129.297 664.972 123.388C667.242 117.594 670.476 109.073 674.674 97.8246C678.986 86.5764 683.07 75.8396 686.928 65.614Z" fill="white"/>
</g>
</svg>
