<svg width="20" height="20" viewBox="0 0 20 20" fill="none" xmlns="http://www.w3.org/2000/svg">
<g id="tabler:map-pin">
<g id="Group">
<path id="Vector" d="M7.5 9.16602C7.5 9.82906 7.76339 10.4649 8.23223 10.9338C8.70107 11.4026 9.33696 11.666 10 11.666C10.663 11.666 11.2989 11.4026 11.7678 10.9338C12.2366 10.4649 12.5 9.82906 12.5 9.16602C12.5 8.50297 12.2366 7.86709 11.7678 7.39825C11.2989 6.92941 10.663 6.66602 10 6.66602C9.33696 6.66602 8.70107 6.92941 8.23223 7.39825C7.76339 7.86709 7.5 8.50297 7.5 9.16602Z" stroke="#9296AB" stroke-width="1.66667" stroke-linecap="round" stroke-linejoin="round"/>
<path id="Vector_2" d="M14.7138 13.8806L11.178 17.4164C10.8655 17.7286 10.4418 17.904 10.0001 17.904C9.55836 17.904 9.13469 17.7286 8.82218 17.4164L5.28551 13.8806C4.3532 12.9482 3.71829 11.7603 3.46108 10.4671C3.20388 9.17394 3.33592 7.83352 3.84051 6.61536C4.34511 5.39721 5.19959 4.35604 6.29591 3.62351C7.39223 2.89098 8.68115 2.5 9.99968 2.5C11.3182 2.5 12.6071 2.89098 13.7034 3.62351C14.7998 4.35604 15.6542 5.39721 16.1588 6.61536C16.6634 7.83352 16.7955 9.17394 16.5383 10.4671C16.2811 11.7603 15.6462 12.9482 14.7138 13.8806Z" stroke="#9296AB" stroke-width="1.66667" stroke-linecap="round" stroke-linejoin="round"/>
</g>
</g>
</svg>
