<svg width="16" height="15" viewBox="0 0 16 15" fill="none" xmlns="http://www.w3.org/2000/svg">
<g id="Group 1171275280">
<path id="Rectangle 167" d="M1.25 5.875C1.25 5.06203 1.25 4.65554 1.30889 4.31615C1.59775 2.65144 2.90144 1.34775 4.56615 1.05889C4.90554 1 5.31203 1 6.125 1H9.875C10.688 1 11.0945 1 11.4338 1.05889C13.0986 1.34775 14.4023 2.65144 14.6911 4.31615C14.75 4.65554 14.75 5.06203 14.75 5.875V6.96378C14.75 9.05485 13.0549 10.75 10.9638 10.75V10.75C10.0219 10.75 9.11383 11.1011 8.41689 11.7346L6.37691 13.5892C5.99214 13.939 5.375 13.666 5.375 13.146V12.8125C5.375 11.6734 4.45159 10.75 3.3125 10.75V10.75C2.17341 10.75 1.25 9.82659 1.25 8.6875V5.875Z" stroke="#9296AB" stroke-linecap="round"/>
<circle id="Ellipse 15" cx="4.625" cy="5.875" r="1.125" fill="#9296AB"/>
<circle id="Ellipse 16" cx="8" cy="5.875" r="1.125" fill="#9296AB"/>
<circle id="Ellipse 17" cx="11.375" cy="5.875" r="1.125" fill="#9296AB"/>
</g>
</svg>
