<svg width="140" height="24" viewBox="0 0 140 24" fill="none" xmlns="http://www.w3.org/2000/svg">
<g id="KAHLUA">
<path d="M9.06608 5.80451L14.1395 0.421053H17.3216C19.443 0.421053 20.5038 0.451127 20.5038 0.511277C20.5038 0.551378 20.3436 0.731829 20.0234 1.05263C19.9634 1.11278 18.4724 2.62657 15.5504 5.59398L11.5578 9.65413L16.4811 16.6316C19.7633 21.2632 21.4044 23.589 21.4044 23.609C21.4044 23.6491 20.3236 23.6692 18.1622 23.6692H14.92C11.878 19.0576 9.58643 15.609 8.0454 13.3233C6.76454 14.6065 5.80389 15.5789 5.16346 16.2406V23.6692H0V15.3985L2.01135 13.2632C2.21148 13.0627 3.16212 12.0601 4.86326 10.2556C6.58442 8.43108 7.98536 6.94737 9.06608 5.80451ZM0 4.99248V0.421053H5.16346V4.03008L2.64177 6.73684C0.960645 8.58145 0.110074 9.50376 0.0900605 9.50376C0.070047 9.52381 0.0500336 9.36341 0.0300202 9.02256C0.0300202 8.66165 0.0200135 8.1203 0 7.3985C0 6.67669 0 5.87469 0 4.99248Z" fill="#1B1C23"/>
<path d="M29.3405 11.5789L33.6333 0.180451H39.067L43.4199 11.8496C44.1204 13.7343 44.8409 15.6692 45.5814 17.6541C46.3219 19.619 46.8822 21.1028 47.2625 22.1053C47.6628 23.1278 47.8629 23.6491 47.8629 23.6692C47.8829 23.7093 47.8729 23.7393 47.8329 23.7594C47.8129 23.7794 47.7028 23.7995 47.5027 23.8195C47.3225 23.8396 47.0523 23.8496 46.6921 23.8496C46.3519 23.8496 45.8515 23.8496 45.1911 23.8496H42.4292L39.4873 15.188C37.626 9.75438 36.5953 6.77694 36.3952 6.25564C36.3952 6.23559 36.3852 6.20551 36.3652 6.16541C36.3652 6.10526 36.3552 6.07519 36.3352 6.07519C36.2951 6.07519 35.0643 9.49373 32.6427 16.3308L30.0009 23.7895C29.4205 23.8095 28.5399 23.8195 27.3591 23.8195C26.1783 23.8195 25.2978 23.8296 24.7174 23.8496L24.8675 23.4286C24.8875 23.3684 25.0876 22.817 25.4679 21.7744C25.8681 20.7519 26.4385 19.2481 27.179 17.2632C27.9395 15.2782 28.66 13.3835 29.3405 11.5789Z" fill="#1B1C23"/>
<path d="M65.7214 24V0.270677H71.0649V24H65.7214ZM50.9815 24V0.270677H56.3251V9.32331H60.708C61.1883 9.32331 61.6486 9.32331 62.0889 9.32331C62.5492 9.32331 62.9595 9.33333 63.3197 9.35338C63.68 9.35338 63.9902 9.35338 64.2504 9.35338C64.5306 9.35338 64.7407 9.36341 64.8808 9.38346H65.0909L62.8694 11.609L60.708 13.7744H56.3251V24H50.9815Z" fill="#1B1C23"/>
<path d="M76.8154 21.3233L79.187 19.3083H90.5046V23.6692H82.3391C76.9555 23.6692 74.2637 23.6291 74.2637 23.5489C74.2637 23.5288 74.2737 23.5088 74.2938 23.4887C74.3138 23.4687 74.4338 23.3584 74.654 23.1579C74.8741 22.9774 75.2044 22.6967 75.6447 22.3158C76.0849 21.9549 76.4752 21.6241 76.8154 21.3233ZM74.0836 8.93233V0.421053H79.2471V13.0526L76.7854 15.1579C75.0843 16.6216 74.2237 17.3634 74.2037 17.3835C74.1837 17.4035 74.1637 17.2932 74.1436 17.0526C74.1236 16.812 74.1036 16.3709 74.0836 15.7293C74.0836 15.0677 74.0836 14.2055 74.0836 13.1429C74.0836 12.0602 74.0836 10.6566 74.0836 8.93233Z" fill="#1B1C23"/>
<path d="M108.257 7.30827V0H113.39V7.3985C113.39 11.9298 113.36 14.6767 113.3 15.6391C113.06 17.8647 112.4 19.589 111.319 20.812C110.258 22.0351 108.677 22.8872 106.576 23.3684C105.915 23.5288 104.845 23.609 103.364 23.609C101.883 23.609 101.102 23.5789 101.022 23.5188C101.002 23.5188 100.992 23.5088 100.992 23.4887C100.992 23.4085 101.883 22.6165 103.664 21.1128C105.485 19.5689 106.526 18.7068 106.786 18.5263C107.526 17.985 107.987 16.9424 108.167 15.3985C108.227 14.9574 108.257 12.2607 108.257 7.30827ZM95.6484 0.0601496C96.9293 0.0601496 97.7898 0.0400997 98.2301 0H98.8305L98.8605 8.06015C98.8806 13.4737 98.9306 16.3008 99.0106 16.5414C99.2508 17.183 99.551 17.7043 99.9112 18.1053C100.151 18.386 100.231 18.5564 100.151 18.6165C99.8912 18.8571 99.2108 19.4386 98.11 20.3609C97.0293 21.2632 96.4689 21.7143 96.4289 21.7143C96.3889 21.7143 96.1687 21.4937 95.7685 21.0526C94.9479 20.1504 94.3575 19.0175 93.9973 17.6541L93.7271 16.6617C93.7071 14.817 93.6971 12.0602 93.6971 8.39098C93.6971 4.70175 93.6871 1.93484 93.6671 0.0902244L95.6484 0.0601496Z" fill="#1B1C23"/>
<path d="M121.16 11.5789L125.453 0.180451H130.886L135.239 11.8496C135.94 13.7343 136.66 15.6692 137.401 17.6541C138.141 19.619 138.702 21.1028 139.082 22.1053C139.482 23.1278 139.682 23.6491 139.682 23.6692C139.702 23.7093 139.692 23.7393 139.652 23.7594C139.632 23.7794 139.522 23.7995 139.322 23.8195C139.142 23.8396 138.872 23.8496 138.512 23.8496C138.171 23.8496 137.671 23.8496 137.01 23.8496H134.249L131.307 15.188C129.445 9.75438 128.415 6.77694 128.215 6.25564C128.215 6.23559 128.205 6.20551 128.185 6.16541C128.185 6.10526 128.175 6.07519 128.155 6.07519C128.115 6.07519 126.884 9.49373 124.462 16.3308L121.82 23.7895C121.24 23.8095 120.359 23.8195 119.179 23.8195C117.998 23.8195 117.117 23.8296 116.537 23.8496L116.687 23.4286C116.707 23.3684 116.907 22.817 117.287 21.7744C117.688 20.7519 118.258 19.2481 118.998 17.2632C119.759 15.2782 120.479 13.3835 121.16 11.5789Z" fill="#1B1C23"/>
</g>
</svg>
