<svg width="18" height="18" viewBox="0 0 18 18" fill="none" xmlns="http://www.w3.org/2000/svg">
<g id="chat">
<mask id="mask0_7_3966" style="mask-type:alpha" maskUnits="userSpaceOnUse" x="0" y="0" width="18" height="18">
<rect id="Rectangle 166" width="18" height="18" fill="#D9D9D9"/>
</mask>
<g mask="url(#mask0_7_3966)">
<g id="Group 1171275280">
<path id="Rectangle 167" d="M2.25 7.875C2.25 7.06203 2.25 6.65554 2.30889 6.31615C2.59775 4.65144 3.90144 3.34775 5.56615 3.05889C5.90554 3 6.31203 3 7.125 3H10.875C11.688 3 12.0945 3 12.4338 3.05889C14.0986 3.34775 15.4023 4.65144 15.6911 6.31615C15.75 6.65554 15.75 7.06203 15.75 7.875V8.96378C15.75 11.0549 14.0549 12.75 11.9638 12.75V12.75C11.0219 12.75 10.1138 13.1011 9.41689 13.7346L7.37691 15.5892C6.99214 15.939 6.375 15.666 6.375 15.146V14.8125C6.375 13.6734 5.45159 12.75 4.3125 12.75V12.75C3.17341 12.75 2.25 11.8266 2.25 10.6875V7.875Z" stroke="#9296AB" stroke-linecap="round"/>
<circle id="Ellipse 15" cx="5.625" cy="7.875" r="1.125" fill="#9296AB"/>
<circle id="Ellipse 16" cx="9" cy="7.875" r="1.125" fill="#9296AB"/>
<circle id="Ellipse 17" cx="12.375" cy="7.875" r="1.125" fill="#9296AB"/>
</g>
</g>
</g>
</svg>
