<svg width="187" height="32" viewBox="0 0 187 32" fill="none" xmlns="http://www.w3.org/2000/svg">
<g id="KAHLUA">
<path d="M12.0881 7.73935L18.8526 0.561403H23.0955C25.9241 0.561403 27.3383 0.601503 27.3383 0.681703C27.3383 0.735171 27.1249 0.975772 26.6979 1.40351C26.6179 1.48371 24.6299 3.50209 20.7339 7.45865L15.4103 12.8722L21.9747 22.1754C26.351 28.3509 28.5391 31.452 28.5391 31.4787C28.5391 31.5322 27.0982 31.5589 24.2162 31.5589H19.8933C15.8373 25.4102 12.7819 20.812 10.7272 17.7644C9.01938 19.4754 7.73853 20.7719 6.88462 21.6541V31.5589H0V20.5313L2.6818 17.6842C2.94864 17.4169 4.21616 16.0802 6.48435 13.6742C8.77922 11.2414 10.6471 9.26316 12.0881 7.73935ZM0 6.65664V0.561403H6.88462V5.37343L3.52236 8.98246C1.28086 11.4419 0.146765 12.6717 0.120081 12.6717C0.093396 12.6984 0.0667115 12.4845 0.0400269 12.0301C0.0400269 11.5489 0.0266846 10.8271 0 9.86466C0 8.90226 0 7.83292 0 6.65664Z" fill="white"/>
<path d="M39.1206 15.4386L44.8445 0.240601H52.0893L57.8932 15.7995C58.8272 18.3124 59.7878 20.8922 60.7751 23.5388C61.7625 26.1587 62.5096 28.137 63.0167 29.4737C63.5503 30.8371 63.8172 31.5322 63.8172 31.5589C63.8439 31.6124 63.8305 31.6525 63.7772 31.6792C63.7505 31.7059 63.6037 31.7327 63.3369 31.7594C63.0967 31.7861 62.7365 31.7995 62.2561 31.7995C61.8025 31.7995 61.1354 31.7995 60.2548 31.7995H56.5723L52.6497 20.2506C50.168 13.0058 48.7938 9.03592 48.5269 8.34085C48.5269 8.31412 48.5136 8.27402 48.4869 8.22055C48.4869 8.14035 48.4736 8.10025 48.4469 8.10025C48.3935 8.10025 46.7524 12.6583 43.5236 21.7744L40.0012 31.7193C39.2274 31.746 38.0532 31.7594 36.4788 31.7594C34.9045 31.7594 33.7303 31.7728 32.9565 31.7995L33.1566 31.2381C33.1833 31.1579 33.4501 30.4227 33.9572 29.0326C34.4908 27.6692 35.2514 25.6642 36.2387 23.0175C37.2527 20.3709 38.2133 17.8446 39.1206 15.4386Z" fill="white"/>
<path d="M87.6285 32V0.360902H94.7533V32H87.6285ZM67.9753 32V0.360902H75.1001V12.4311H80.944C81.5844 12.4311 82.1982 12.4311 82.7852 12.4311C83.399 12.4311 83.946 12.4444 84.4263 12.4712C84.9066 12.4712 85.3203 12.4712 85.6672 12.4712C86.0407 12.4712 86.3209 12.4845 86.5077 12.5113H86.7879L83.8259 15.4787L80.944 18.3659H75.1001V32H67.9753Z" fill="white"/>
<path d="M102.421 28.4311L105.583 25.7444H120.673V31.5589H109.786C102.607 31.5589 99.0183 31.5054 99.0183 31.3985C99.0183 31.3718 99.0316 31.345 99.0583 31.3183C99.085 31.2916 99.2451 31.1445 99.5387 30.8772C99.8322 30.6366 100.272 30.2623 100.86 29.7544C101.447 29.2732 101.967 28.8321 102.421 28.4311ZM98.7781 11.9098V0.561403H105.663V17.4035L102.381 20.2105C100.112 22.1621 98.9649 23.1512 98.9382 23.1779C98.9116 23.2047 98.8849 23.0576 98.8582 22.7368C98.8315 22.416 98.8048 21.8279 98.7781 20.9724C98.7781 20.0902 98.7781 18.9407 98.7781 17.5238C98.7781 16.0802 98.7781 14.2089 98.7781 11.9098Z" fill="white"/>
<path d="M144.342 9.74436V0H151.187V9.86466C151.187 15.9064 151.147 19.5689 151.067 20.8521C150.747 23.8195 149.866 26.1186 148.425 27.7494C147.011 29.3801 144.903 30.5163 142.101 31.1579C141.22 31.3718 139.793 31.4787 137.818 31.4787C135.843 31.4787 134.803 31.4386 134.696 31.3584C134.669 31.3584 134.656 31.345 134.656 31.3183C134.656 31.2114 135.843 30.1554 138.218 28.1504C140.647 26.0919 142.034 24.9424 142.381 24.7018C143.368 23.9799 143.982 22.5898 144.222 20.5313C144.302 19.9432 144.342 16.3475 144.342 9.74436ZM127.531 0.0801995C129.239 0.0801995 130.386 0.0534663 130.973 0H131.774L131.814 10.7469C131.841 17.9649 131.907 21.7343 132.014 22.0551C132.334 22.9106 132.735 23.6057 133.215 24.1404C133.535 24.5146 133.642 24.7419 133.535 24.8221C133.188 25.1429 132.281 25.9181 130.813 27.1479C129.372 28.3509 128.625 28.9524 128.572 28.9524C128.519 28.9524 128.225 28.6583 127.691 28.0702C126.597 26.8672 125.81 25.3567 125.33 23.5388L124.969 22.2155C124.943 19.7561 124.929 16.0802 124.929 11.188C124.929 6.269 124.916 2.57978 124.889 0.120299L127.531 0.0801995Z" fill="white"/>
<path d="M161.546 15.4386L167.27 0.240601H174.515L180.319 15.7995C181.253 18.3124 182.214 20.8922 183.201 23.5388C184.188 26.1587 184.936 28.137 185.443 29.4737C185.976 30.8371 186.243 31.5322 186.243 31.5589C186.27 31.6124 186.256 31.6525 186.203 31.6792C186.176 31.7059 186.03 31.7327 185.763 31.7594C185.523 31.7861 185.162 31.7995 184.682 31.7995C184.228 31.7995 183.561 31.7995 182.681 31.7995H178.998L175.076 20.2506C172.594 13.0058 171.22 9.03592 170.953 8.34085C170.953 8.31412 170.939 8.27402 170.913 8.22055C170.913 8.14035 170.899 8.10025 170.873 8.10025C170.819 8.10025 169.178 12.6583 165.949 21.7744L162.427 31.7193C161.653 31.746 160.479 31.7594 158.905 31.7594C157.33 31.7594 156.156 31.7728 155.382 31.7995L155.582 31.2381C155.609 31.1579 155.876 30.4227 156.383 29.0326C156.917 27.6692 157.677 25.6642 158.665 23.0175C159.679 20.3709 160.639 17.8446 161.546 15.4386Z" fill="white"/>
</g>
</svg>
